<?xml version="1.0" encoding="iso-8859-1"?>
<!-- Generator: Adobe Illustrator 19.0.0, SVG Export Plug-In . SVG Version: 6.00 Build 0)  -->
<svg version="1.1" id="Capa_1" xmlns="http://www.w3.org/2000/svg" xmlns:xlink="http://www.w3.org/1999/xlink" x="0px" y="0px"
	 viewBox="0 0 512 512" style="enable-background:new 0 0 512 512;" xml:space="preserve">
<g>
	<g>
		<path d="M392,0H72C54.352,0,40,14.352,40,32v464c0,8.832,7.152,16,16,16h224v-32H72V128h320v176h32V32C424,14.352,409.648,0,392,0
			z M392,96H72V32h320V96z"/>
	</g>
</g>
<g>
	<g>
		<path d="M344,160H120c-8.848,0-16,7.168-16,16v96c0,8.832,7.152,16,16,16h224c8.848,0,16-7.168,16-16v-96
			C360,167.168,352.848,160,344,160z M328,256H136v-64h192V256z"/>
	</g>
</g>
<g>
	<g>
		<rect x="104" y="320" width="64" height="32"/>
	</g>
</g>
<g>
	<g>
		<rect x="104" y="368" width="96" height="32"/>
	</g>
</g>
<g>
	<g>
		<rect x="312" y="464" width="32" height="32"/>
	</g>
</g>
<g>
	<g>
		<rect x="376" y="464" width="96" height="32"/>
	</g>
</g>
<g>
	<g>
		<rect x="312" y="400" width="32" height="32"/>
	</g>
</g>
<g>
	<g>
		<rect x="376" y="400" width="96" height="32"/>
	</g>
</g>
<g>
	<g>
		<rect x="312" y="336" width="32" height="32"/>
	</g>
</g>
<g>
	<g>
		<rect x="376" y="336" width="96" height="32"/>
	</g>
</g>
<g>
</g>
<g>
</g>
<g>
</g>
<g>
</g>
<g>
</g>
<g>
</g>
<g>
</g>
<g>
</g>
<g>
</g>
<g>
</g>
<g>
</g>
<g>
</g>
<g>
</g>
<g>
</g>
<g>
</g>
</svg>
