<svg id="Layer_1" enable-background="new 0 0 496 496" height="512" viewBox="0 0 496 496" width="512" xmlns="http://www.w3.org/2000/svg"><path d="m420 194h-57.593l-16.281-47.216c-2.226-6.453-8.3-10.784-15.126-10.784h-7v-18h13c22.056 0 40-17.944 40-40v-38c0-22.056-17.944-40-40-40h-116c-22.056 0-40 17.944-40 40v38c0 22.056 17.944 40 40 40h13v18h-7c-6.826 0-12.9 4.331-15.126 10.784l-16.281 47.216h-119.593c-26.467 0-48 21.533-48 48v206c0 26.467 21.533 48 48 48h344c26.467 0 48-21.533 48-48v-206c0-26.467-21.533-48-48-48zm-207-116v-38c0-4.411 3.589-8 8-8h116c4.411 0 8 3.589 8 8v38c0 4.411-3.589 8-8 8-12.375 0-103.633 0-116 0-4.411 0-8-3.589-8-8zm53 40h26v18h-26zm-206 330v-206c0-8.822 7.178-16 16-16h36v238h-36c-8.822 0-16-7.178-16-16zm376 0c0 8.822-7.178 16-16 16h-276v-238h63c6.826 0 12.9-4.331 15.126-10.784l16.281-47.216h81.186l16.281 47.216c2.226 6.453 8.3 10.784 15.126 10.784h69c8.822 0 16 7.178 16 16zm-182-373c-8.837 0-16-7.163-16-16s7.163-16 16-16h50c8.837 0 16 7.163 16 16s-7.163 16-16 16zm-5 119c0-8.837 7.163-16 16-16h28c8.837 0 16 7.163 16 16s-7.163 16-16 16h-28c-8.837 0-16-7.163-16-16zm30 35c-61.757 0-112 50.243-112 112s50.243 112 112 112 112-50.243 112-112-50.243-112-112-112zm0 192c-44.112 0-80-35.888-80-80s35.888-80 80-80 80 35.888 80 80-35.888 80-80 80zm0-144c-35.29 0-64 28.71-64 64s28.71 64 64 64 64-28.71 64-64-28.71-64-64-64zm0 96c-17.645 0-32-14.355-32-32s14.355-32 32-32 32 14.355 32 32-14.355 32-32 32zm124.13-101.311c-8.357 1.615-16.836-3.393-18.82-12.56-1.743-9.106 4.287-17.191 12.561-18.82 8.366-1.604 16.81 3.373 18.819 12.561 1.622 8.383-3.442 16.863-12.56 18.819z"/></svg>